<svg xmlns="http://www.w3.org/2000/svg" xmlns:xlink="http://www.w3.org/1999/xlink" width="500" zoomAndPan="magnify" viewBox="0 0 375 374.999991" height="500" preserveAspectRatio="xMidYMid meet" version="1.0"><defs><clipPath id="f208a95c4c"><path d="M 0 79.089844 L 375 79.089844 L 375 295.839844 L 0 295.839844 Z M 0 79.089844 " clip-rule="nonzero"/></clipPath></defs><g clip-path="url(#f208a95c4c)"><path fill="#000000" d="M 364.890625 295.308594 L 10.109375 295.308594 C 9.464844 295.308594 8.824219 295.246094 8.1875 295.121094 C 7.554688 294.992188 6.9375 294.804688 6.339844 294.558594 C 5.742188 294.3125 5.175781 294.007812 4.636719 293.648438 C 4.097656 293.289062 3.601562 292.878906 3.144531 292.421875 C 2.683594 291.964844 2.277344 291.46875 1.917969 290.929688 C 1.558594 290.390625 1.253906 289.824219 1.007812 289.226562 C 0.757812 288.628906 0.570312 288.011719 0.445312 287.378906 C 0.320312 286.746094 0.257812 286.101562 0.257812 285.457031 C 0.257812 284.808594 0.320312 284.167969 0.445312 283.535156 C 0.570312 282.898438 0.757812 282.285156 1.007812 281.6875 C 1.253906 281.089844 1.558594 280.519531 1.917969 279.984375 C 2.277344 279.445312 2.683594 278.949219 3.144531 278.488281 C 3.601562 278.03125 4.097656 277.625 4.636719 277.265625 C 5.175781 276.90625 5.742188 276.601562 6.339844 276.355469 C 6.9375 276.105469 7.554688 275.917969 8.1875 275.792969 C 8.824219 275.667969 9.464844 275.605469 10.109375 275.605469 L 364.890625 275.605469 C 365.535156 275.605469 366.175781 275.667969 366.8125 275.792969 C 367.445312 275.917969 368.0625 276.105469 368.660156 276.355469 C 369.257812 276.601562 369.824219 276.90625 370.363281 277.265625 C 370.902344 277.625 371.398438 278.03125 371.855469 278.488281 C 372.316406 278.949219 372.722656 279.445312 373.082031 279.984375 C 373.441406 280.519531 373.746094 281.089844 373.992188 281.6875 C 374.242188 282.285156 374.429688 282.898438 374.554688 283.535156 C 374.679688 284.167969 374.742188 284.808594 374.742188 285.457031 C 374.742188 286.101562 374.679688 286.746094 374.554688 287.378906 C 374.429688 288.011719 374.242188 288.628906 373.992188 289.226562 C 373.746094 289.824219 373.441406 290.390625 373.082031 290.929688 C 372.722656 291.46875 372.316406 291.964844 371.855469 292.421875 C 371.398438 292.878906 370.902344 293.289062 370.363281 293.648438 C 369.824219 294.007812 369.257812 294.3125 368.660156 294.558594 C 368.0625 294.804688 367.445312 294.992188 366.8125 295.121094 C 366.175781 295.246094 365.535156 295.308594 364.890625 295.308594 Z M 364.890625 197.042969 L 10.109375 197.042969 C 9.464844 197.042969 8.824219 196.980469 8.1875 196.851562 C 7.554688 196.726562 6.9375 196.539062 6.339844 196.292969 C 5.742188 196.042969 5.175781 195.742188 4.636719 195.382812 C 4.097656 195.023438 3.601562 194.613281 3.144531 194.15625 C 2.683594 193.699219 2.277344 193.203125 1.917969 192.664062 C 1.558594 192.125 1.253906 191.558594 1.007812 190.960938 C 0.757812 190.363281 0.570312 189.746094 0.445312 189.113281 C 0.320312 188.476562 0.257812 187.835938 0.257812 187.191406 C 0.257812 186.542969 0.320312 185.902344 0.445312 185.269531 C 0.570312 184.632812 0.757812 184.015625 1.007812 183.417969 C 1.253906 182.820312 1.558594 182.253906 1.917969 181.714844 C 2.277344 181.179688 2.683594 180.679688 3.144531 180.222656 C 3.601562 179.765625 4.097656 179.359375 4.636719 179 C 5.175781 178.640625 5.742188 178.335938 6.339844 178.085938 C 6.9375 177.839844 7.554688 177.652344 8.1875 177.527344 C 8.824219 177.402344 9.464844 177.335938 10.109375 177.335938 L 364.890625 177.335938 C 365.535156 177.335938 366.175781 177.402344 366.8125 177.527344 C 367.445312 177.652344 368.0625 177.839844 368.660156 178.085938 C 369.257812 178.335938 369.824219 178.640625 370.363281 179 C 370.902344 179.359375 371.398438 179.765625 371.855469 180.222656 C 372.316406 180.679688 372.722656 181.179688 373.082031 181.714844 C 373.441406 182.253906 373.746094 182.820312 373.992188 183.417969 C 374.242188 184.015625 374.429688 184.632812 374.554688 185.269531 C 374.679688 185.902344 374.742188 186.542969 374.742188 187.191406 C 374.742188 187.835938 374.679688 188.476562 374.554688 189.113281 C 374.429688 189.746094 374.242188 190.363281 373.992188 190.960938 C 373.746094 191.558594 373.441406 192.125 373.082031 192.664062 C 372.722656 193.203125 372.316406 193.699219 371.855469 194.15625 C 371.398438 194.613281 370.902344 195.023438 370.363281 195.382812 C 369.824219 195.742188 369.257812 196.042969 368.660156 196.292969 C 368.0625 196.539062 367.445312 196.726562 366.8125 196.851562 C 366.175781 196.980469 365.535156 197.042969 364.890625 197.042969 Z M 364.890625 98.796875 L 10.109375 98.796875 C 9.464844 98.796875 8.824219 98.730469 8.1875 98.605469 C 7.554688 98.480469 6.9375 98.292969 6.339844 98.046875 C 5.742188 97.796875 5.175781 97.496094 4.636719 97.136719 C 4.097656 96.777344 3.601562 96.367188 3.144531 95.910156 C 2.683594 95.453125 2.277344 94.953125 1.917969 94.417969 C 1.558594 93.878906 1.253906 93.3125 1.007812 92.714844 C 0.757812 92.117188 0.570312 91.5 0.445312 90.867188 C 0.320312 90.230469 0.257812 89.589844 0.257812 88.941406 C 0.257812 88.296875 0.320312 87.65625 0.445312 87.019531 C 0.570312 86.386719 0.757812 85.769531 1.007812 85.171875 C 1.253906 84.574219 1.558594 84.007812 1.917969 83.46875 C 2.277344 82.933594 2.683594 82.433594 3.144531 81.976562 C 3.601562 81.519531 4.097656 81.109375 4.636719 80.75 C 5.175781 80.390625 5.742188 80.089844 6.339844 79.839844 C 6.9375 79.59375 7.554688 79.40625 8.1875 79.28125 C 8.824219 79.152344 9.464844 79.089844 10.109375 79.089844 L 364.890625 79.089844 C 365.535156 79.089844 366.175781 79.152344 366.8125 79.28125 C 367.445312 79.40625 368.0625 79.59375 368.660156 79.839844 C 369.257812 80.089844 369.824219 80.390625 370.363281 80.75 C 370.902344 81.109375 371.398438 81.519531 371.855469 81.976562 C 372.316406 82.433594 372.722656 82.933594 373.082031 83.46875 C 373.441406 84.007812 373.746094 84.574219 373.992188 85.171875 C 374.242188 85.769531 374.429688 86.386719 374.554688 87.019531 C 374.679688 87.65625 374.742188 88.296875 374.742188 88.941406 C 374.742188 89.589844 374.679688 90.230469 374.554688 90.867188 C 374.429688 91.5 374.242188 92.117188 373.992188 92.714844 C 373.746094 93.3125 373.441406 93.878906 373.082031 94.417969 C 372.722656 94.953125 372.316406 95.453125 371.855469 95.910156 C 371.398438 96.367188 370.902344 96.777344 370.363281 97.136719 C 369.824219 97.496094 369.257812 97.796875 368.660156 98.046875 C 368.0625 98.292969 367.445312 98.480469 366.8125 98.605469 C 366.175781 98.730469 365.535156 98.796875 364.890625 98.796875 Z M 364.890625 98.796875 " fill-opacity="1" fill-rule="nonzero"/></g></svg>